<svg id="PLANTA_2" data-name="PLANTA 2" xmlns="http://www.w3.org/2000/svg" viewBox="0 0 1920 1080"><defs><style>.cls-1{fill:none;stroke:#ffe600;stroke-linecap:round;stroke-linejoin:round;stroke-width:7px;}</style></defs><title>track_default_floor2</title><path class="cls-1" d="M78,768l8.42-3.87"/><path class="cls-1" d="M97.5,759l10.42-4.8"/><path class="cls-1" d="M119.17,749l11.65-5.37"/><path class="cls-1" d="M143.4,737.86C294.48,668.11,655.73,500.7,666,489.79,679,476,638.46,475,658,465S939,320,960,320s125,65,120.51,76S692,609,672,609s-68.81-57-81.4-60-83.17,33.41-81,38.58S629,701,682,702s651.58-344.41,649-357-26.47-27.4-26.47-27.4-1.44.6,30-21,196.49-97.5,196.49-97.5,12-.9,16.5,7.5c2.3,4.34-37.48,39.89-76.44,73.2"/><path class="cls-1" d="M1458.52,290.52c-4.36,3.7-8.66,7.32-12.81,10.82"/><path class="cls-1" d="M1433.14,311.87c-4.23,3.53-8.21,6.85-11.86,9.88"/><path class="cls-1" d="M1409.75,331.3c-6.69,5.52-10.69,8.79-10.69,8.79"/></svg>