<svg id="HOME_Recorrido_champions" data-name="HOME Recorrido champions" xmlns="http://www.w3.org/2000/svg" viewBox="0 0 1920 1080"><defs><style>.cls-1{fill:none;stroke:#fff200;stroke-linecap:round;stroke-linejoin:round;stroke-width:7px;}</style></defs><title>home_track_champions</title><path class="cls-1" d="M1240,689.28s-250.65-85.95-261.31-93.95c-2.62-2,7-13.9,3.33-19.33-11.29-16.67-50.69-56-62-50s-95.33,58-108.67,57.33-6-9.33-6-9.33,111.33-61.33,134-66.67,28.67,26,45.33,29.33,50.67-19.33,52.67-30-30.67,2.78-24-7.33,99.19-53.63,111.19-53.63,20.81,8.3,14.14,19-133.33,74.67-134.67,84,1.33,12,20.67,11.33,109.33-73.33,126-85.33,39.35-36.66,42.67-26-41.71,44-31.34,52S1354,638,1354,638"/></svg>