<svg id="HOME_Recorrido_liga" data-name="HOME Recorrido liga" xmlns="http://www.w3.org/2000/svg" viewBox="0 0 1920 1080"><defs><style>.cls-1{fill:none;stroke:#fff200;stroke-linecap:round;stroke-linejoin:round;stroke-width:7px;}</style></defs><title>home_track_ligaycopa</title><path class="cls-1" d="M1240,689.28S971.92,599.2,972.25,587.54s132-54.33,133.33-64.67-27.27-9.07-27.33-16.67c-.08-9.44,40.22-13,40.67-22.67.33-7.27-26-25.33-45.33-20s-138.83,64.31-154,71.33c-12.53,5.81-13-11.74-20.31-13.41-2-.45-3.55.38-5.69,1.41-9.08,4.36-8.64,14.34-15.25,16.8-2.06.76-11.24,4.37-11.33-2.33l-1.32-99.58A221,221,0,0,1,908.5,418.5s9-2.94,49.75-12.3h0"/><path class="cls-1" d="M958.25,406.2c3.32-2.76,41.62-12,41.62-14.24s-21.33-17.67-20.79-21,79.61-34.5,83.79-34.5,53.1,37.82,53.1,37.82"/><path class="cls-1" d="M958.25,406.2c11.49,2.48,35.52,31.42,43.33,32.67,6.08,1,76.42-39.77,114.38-64.58"/><path class="cls-1" d="M1116,374.29c14.06-9.19,23.68-16.19,23.95-18.09,1-7-15-5-16-11s87.65-53.25,92.75-50.54c1.34.71-13.11,14.79-13.19,27l-.51,10.91c-.24,34.23-4,86.26-4,86.26s-32.76,75.91-32.88,86.62,189.44,132.79,189.44,132.79"/></svg>