<svg id="PLANTA_0" data-name="PLANTA 0" xmlns="http://www.w3.org/2000/svg" viewBox="0 0 1920 1080"><defs><style>.cls-1,.cls-2{fill:none;stroke:#fff200;stroke-width:7px;}.cls-1{stroke-miterlimit:10;}.cls-2{stroke-linecap:round;stroke-linejoin:round;}</style></defs><title>track_default_floor0</title><path class="cls-1" d="M445.5,648.78s-3.59,5.74-8.29,13.92"/><path class="cls-1" d="M434.78,666.63a163.37,163.37,0,0,0-8.28,19"/><path class="cls-1" d="M424.33,690.36c-2.41,6.66-4.59,13.33-6,19"/><path class="cls-1" d="M430.64,733.12a45.3,45.3,0,0,0,12.86,1.66c16,0,29-25,41-18s57,73,57,73,102.33,87.45,118.17,87.45,89.83-41.45,91.83-49.45-76-35.22-75-50,35-18,35-18,30,5,46,9.5,23-4.5,24-14.5-42-19-44-33S846,658.7,846,658.7"/><path class="cls-1" d="M416,718.31a18.2,18.2,0,0,0,5.28,9.69"/><path class="cls-2" d="M1314.5,290.78s74-14,74-2-54,49-67,50-181.38-81.4-181.38-81.4l-23.62-10.6-36-12s-34-32-44-32-120,80-119,90,45,25,45,25,47,40,47,47"/><line class="cls-1" x1="1129.5" y1="264.78" x2="1016.5" y2="356.28"/><path class="cls-1" d="M1009.5,364.78c0,7-105,62-105,71s141,74,153,74,106-92,120-96a18.45,18.45,0,0,1,9,.21"/><path class="cls-1" d="M1190.63,414.29c5.82,3.36,10.87,6.85,13.64,8.85"/><path class="cls-1" d="M1210,425.67c5.82,3.36,10.87,6.85,13.64,8.85"/><path class="cls-1" d="M1232.09,437.27l13.74,5.83"/></svg>