<?xml version="1.0" encoding="utf-8"?>
<!-- Generator: Adobe Illustrator 16.0.0, SVG Export Plug-In . SVG Version: 6.00 Build 0)  -->
<!DOCTYPE svg PUBLIC "-//W3C//DTD SVG 1.1//EN" "http://www.w3.org/Graphics/SVG/1.1/DTD/svg11.dtd">
<svg version="1.1" id="Capa_1" xmlns="http://www.w3.org/2000/svg" xmlns:xlink="http://www.w3.org/1999/xlink" x="0px" y="0px"
	 width="1920px" height="1080px" viewBox="0 0 1920 1080" enable-background="new 0 0 1920 1080" xml:space="preserve">
<image display="none" overflow="visible" width="1920" height="1080" xlink:href="montado_planta_-1_.fw.png" >
</image>
<g id="Capa_2">
	<polyline fill="none" stroke="#BBCB30" stroke-width="7" stroke-linecap="round" stroke-linejoin="round" points="314.674,292.097 
		255.674,380.097 178.174,489.098 605.674,708.598 725.674,775.598 797.674,777.098 848.174,782.598 901.174,731.098 
		953.674,701.098 966.674,679.598 1012.674,658.598 1041.174,618.598 1064.174,608.098 1102.174,555.098 1128.674,536.098 
		1189.174,481.098 1049.674,392.598 1024.34,360.598 934.174,308.597 987.674,253.265 849.146,183.469 909.674,141.931 
		985.007,177.265 941.674,210.598 1023.007,250.598 957.674,306.597 1031.674,349.931 1130.674,284.597 1191.674,247.097 
		1241.174,218.597 1331.674,243.264 1465.008,311.264 1524.532,350.819 1543.008,332.598 1562.788,349.245 1633.008,307.264 
		1651.674,314.597 1687.674,297.097 1616.174,250.597 1491.674,175.931 1422.341,132.597 1387.674,108.597 1116.341,269.264 
		1101.007,265.931 1037.674,217.597 1029.674,213.597	"/>
</g>
</svg>
