<svg id="PLANTA_1" data-name="PLANTA 1" xmlns="http://www.w3.org/2000/svg" viewBox="0 0 1920 1080"><defs><style>.cls-1,.cls-2{fill:none;stroke:#fff200;stroke-width:7px;}.cls-1{stroke-miterlimit:10;}.cls-2{stroke-linecap:round;stroke-linejoin:round;}</style></defs><title>recorrido_plantas-01</title><path class="cls-1" d="M977.2,907.94l-9.9-4.49"/><path class="cls-1" d="M957.61,899l-10.26-4.67"/><path class="cls-1" d="M936.84,889.59l-11.5-5.24"/><path class="cls-1" d="M916.17,880.17c-56-25.56-130.79-59.87-133.65-62.23-3.34-2.76-70.83-71.84-72-72-3-.4-118,51-118,51l-12-10.5S707.2,723.27,717.2,723.27s47.33,44,59.33,44S1135.73,567.62,1133.1,563l-40.5-24S1389.2,366.61,1389.2,356.61s-155.36-94.79-162.67-96c-8.44-1.4-297.33,178-297.33,178s78.67,67.33,80.8,75.39S831.86,639.27,810,640s-97.47-78.73-97.47-78.73L753.62,539"/><line class="cls-2" x1="930.03" y1="438.44" x2="754.29" y2="538.39"/><path class="cls-1" d="M754.53,538.61l-79.86-53.94-43.72,29.09L430.67,638.67,298,715.33,210.67,756l-57.33-55.33L162,696s46.67,39.33,50,36.67,136.67-55.33,136.67-57.33-15.33-14-15.33-14L360,646.67,376.67,658l230-142-14-10-12.14,8.67"/><path class="cls-1" d="M575.5,519l-14.67,11.83"/><path class="cls-1" d="M555,535.67l-14,10.67"/></svg>