<svg id="PLANTA_1_ligacopa" data-name="PLANTA 1 ligacopa" xmlns="http://www.w3.org/2000/svg" viewBox="0 0 1920 1080"><defs><style>.cls-1,.cls-2{fill:none;stroke:#fff200;stroke-width:7px;}.cls-1{stroke-miterlimit:10;}.cls-2{stroke-linecap:round;stroke-linejoin:round;}</style></defs><title>track_default_liga1</title><path class="cls-1" d="M977.2,907.94l-9.9-4.49"/><path class="cls-1" d="M957.61,899l-10.26-4.67"/><path class="cls-1" d="M936.84,889.59l-11.5-5.24"/><path class="cls-1" d="M916.17,880.17c-56-25.56-130.79-59.87-133.65-62.23-3.34-2.76-70.83-71.84-72-72-3-.4-118,51-118,51l-12-10.5S707.2,723.27,717.2,723.27s47.33,44,59.33,44S1135.73,567.62,1133.1,563l-40.5-24S1389.2,366.61,1389.2,356.61s-155.36-94.79-162.67-96c-8.44-1.4-297.33,178-297.33,178s78.67,67.33,80.8,75.39S831.86,639.27,810,640s-97.47-78.73-97.47-78.73L753.62,539"/><line class="cls-2" x1="930.03" y1="438.44" x2="754.29" y2="538.39"/><path class="cls-1" d="M754.53,538.61l-79.86-53.94-43.72,29.09c-34.21,17.44-65.35,34.66-91.25,58.73-36.2,33.63-77.15,64.36-130.36,94.19,0,0-76.3-39-63.33-12.67,15.49,31.43-82.07,87.48-135.33,102l-100,51.95"/><path class="cls-1" d="M98.79,816.12,84.12,827.95"/><path class="cls-1" d="M73.3,832.31,59.3,843"/></svg>