<svg id="PLANTA_1_champions" data-name="PLANTA 1 champions" xmlns="http://www.w3.org/2000/svg" viewBox="0 0 1920 1080"><defs><style>.cls-1{fill:none;stroke:#fff200;stroke-miterlimit:10;stroke-width:7px;}</style></defs><title>track_default_champions</title><path class="cls-1" d="M977.2,907.94l-9.9-4.49"/><path class="cls-1" d="M957.61,899l-10.26-4.67"/><path class="cls-1" d="M936.84,889.59l-11.5-5.24"/><path class="cls-1" d="M916.17,880.17c-56-25.56-130.79-59.87-133.65-62.23-1.29-1.07-41.36-26-46.53-76.94-8.21-81-175.17-132-175.17-132S161,827,137,813s-33-13,0-23,61-34,61-34-36.85-24.34-24-44.92c34-54.48,6.32,34.76,45,33.51,33.57-1.09,132-48.06,129-61.59-4.07-18.31-20-47,9-50s27,47,47,40,144-79,144-79-9.61-12.28,0-23.61c24.79-29.25,106.49-86.44,126.67-85.72,28,1,48,18.83,78.95,46.17s-31.86,28.55-23.86,39.55,63.44,58.67,76.44,58.67S1026,528,1007,504s-82.14-35-34.75-76,152-100.28,180-104.28S1219,351,1223,367c2,7.85-71.85,76-166,140-97.76,66.48-215.77,128.89-201,135,29,12,405-244,402-265s-63.55-48.29-56.55-65.29S1210,268,1229,273s134,69,134,69,23,14,20,29S994.39,608,977.2,616,828,678,830,697s31,45,44,41,172-100.33,205-117.67S1324,470,1324,470s88-114,132-93,257,239,257,239"/><line class="cls-1" x1="1723" y1="630" x2="1732" y2="639"/><line class="cls-1" x1="1737" y1="648" x2="1743" y2="654"/></svg>